<?xml version="1.0" encoding="utf-8"?>
<!-- Generator: Adobe Illustrator 17.0.0, SVG Export Plug-In . SVG Version: 6.00 Build 0)  -->
<!DOCTYPE svg PUBLIC "-//W3C//DTD SVG 1.1//EN" "http://www.w3.org/Graphics/SVG/1.1/DTD/svg11.dtd">
<svg version="1.1"
	 id="svg8" xmlns:svg="http://www.w3.org/2000/svg" xmlns:rdf="http://www.w3.org/1999/02/22-rdf-syntax-ns#" xmlns:cc="http://creativecommons.org/ns#" xmlns:inkscape="http://www.inkscape.org/namespaces/inkscape" xmlns:sodipodi="http://sodipodi.sourceforge.net/DTD/sodipodi-0.dtd" xmlns:dc="http://purl.org/dc/elements/1.1/" sodipodi:docname="Colour, background, no text.svg" inkscape:version="0.92.3 (2405546, 2018-03-11)"
	 xmlns="http://www.w3.org/2000/svg" xmlns:xlink="http://www.w3.org/1999/xlink" x="0px" y="0px" width="484.37px"
	 height="841.058px" viewBox="52.469 0.275 484.37 841.058" enable-background="new 52.469 0.275 484.37 841.058"
	 xml:space="preserve">
<sodipodi:namedview  inkscape:document-units="mm" inkscape:window-height="1027" inkscape:pageshadow="2" inkscape:window-width="1920" inkscape:window-y="-8" inkscape:window-x="-8" inkscape:pageopacity="0.0" inkscape:window-maximized="1" inkscape:current-layer="layer1" id="base" bordercolor="#666666" inkscape:cx="312.88338" borderopacity="1.0" pagecolor="#ffffff" inkscape:cy="499.69038" showgrid="false" inkscape:zoom="0.98994949">
	</sodipodi:namedview>
<g id="layer1" inkscape:groupmode="layer" inkscape:label="Layer 1">
	<g id="Layer_2" transform="matrix(0.37968732,0,0,0.37968732,18.510328,0.096869)">
		<g id="Layer_11">
			<path id="path145" inkscape:connector-curvature="0" fill="#B89551" d="M297.817,2215.604l-0.907-78.548
				c-0.17-14.882,0-29.962,0.624-44.816c2.013-51.818,5.244-111.827,17.915-168.747c5.348-24.094,11.216-48.142,17.603-72.142
				l-16.356,26.277l24.832-112.734c38.381-174.416,115.228-334.488,189.525-489.544c16.469-34.384,33.506-69.931,49.89-105.137
				c1.389-2.835,4.45-9.496,5.981-14.173c-1.162-0.34-2.693-0.709-4.62-1.106c-22.662-4.378-45.72-6.373-68.797-5.953
				c-4.677,0-9.439,0.227-14.173,0.369c-33.506,1.077-71.461,2.296-101.367-21.09c-17.291-13.493-25.313-34.016-29.31-55.616
				l-11.537,5.669c-7.398-12.756-15.421-25.767-23.159-38.353c-22.479-36.454-45.695-74.183-60.803-115.682l-7.172-19.559
				l20.013-6.123c11.339-3.487,22.677-2.835,31.691-2.211l54.454,3.402c4.11,0.255,8.504,0.397,12.898,0.539
				c13.342-0.058,26.65,1.349,39.685,4.195c28.346,7.2,58.535,12.444,87.676,17.547l12.614,2.211
				c62.787,11.083,114.435,21.033,162.51,31.181c62.929,11.792,127.247,12.076,181.871,10.8
				c58.11-1.389,125.433-1.134,189.326,19.332c6.857,1.823,13.033,5.606,17.773,10.885c3.505,4.442,5.939,9.631,7.115,15.165
				l0.255,1.049c2.438,8.986,8.362,21.43,11.934,25.058c2.296,2.324,7.824,4.224,13.181,6.038c2.608,0.879,5.329,1.814,8.079,2.835
				c24.435,9.666,49.351,19.021,74.041,27.78c49.465,17.518,100.205,33.477,150.832,47.395l23.216,6.406l-10.687,21.543
				c-6.491,13.068-12.954,26.617-19.247,39.685c-6.293,13.068-12.869,26.901-19.474,40.224c-4.706,9.496-12.387,13.068-35.32,13.493
				c-11.339,24.832-28.63,41.981-51.024,59.811c-5.398,4.617-11.431,8.436-17.915,11.339c-8.006,3.015-16.452,4.7-25.002,4.989
				c-10.998,0.822-22.195,1.474-33.024,2.126c-51.024,2.976-98.929,5.811-142.044,24.917c-7.002,3.09-15.789,7.455-21.628,13.72
				c-5.839,6.265-10.205,16.384-14.173,25.965c-13.238,31.55-26.929,64.148-30.614,97.427
				c-7.484,67.521,25.767,134.844,55.134,194.258c0.312,0.652,0.765,1.587,1.247,2.835
				c39.235,61.945,89.629,116.068,148.621,159.619l106.271,78.151l-124.554-43.427c-82.432-28.715-180.142-25.937-268.129,7.597
				l-63.893,24.378l32.031-42.888c-20.495,10.743-41.329,21.94-60.775,34.299c-33.704,21.458-67.266,48.954-102.586,84.104
				c-6.038,5.981-12.132,11.877-18.255,17.773c-5.414,5.272-10.857,10.517-16.243,15.846
				c-16.101,15.931-29.735,30.472-41.698,44.419c-9.163,11.277-17.508,23.194-24.973,35.66c-2.683,4.271-5.414,8.542-8.192,12.813
				l-44.872,68.599l8.504-81.496c0.397-3.742,1.304-8.901,2.126-13.436s1.786-8.986,2.835-13.436
				c2.069-8.901,4.62-17.802,7.54-26.447c5.669-16.866,11.991-33.676,17.547-48.501c4.45-11.877,9.439-24.35,15.222-38.126
				c14.371-35.25,33.256-68.485,56.183-98.872c-60.917,29.14-124.299,76.535-182.268,137.282
				c-13.039,13.663-23.386,25.512-32.598,37.106c-5.159,6.548-10.602,12.699-15.874,18.624c-6.826,7.447-13.26,15.243-19.276,23.357
				c-6.523,9.686-12.403,19.79-17.603,30.246L297.817,2215.604z M796.998,1770.847l-83.083,55.134
				c-44.419,29.452-81.213,78.406-109.389,145.446c-4.507,10.772-8.504,20.664-12.132,30.076c4.346-4.441,8.863-8.995,13.55-13.663
				c5.499-5.443,11.055-10.8,16.611-16.157c5.556-5.358,11.934-11.537,17.802-17.405c37.389-37.191,73.134-66.444,109.276-89.433
				c23.868-15.165,48.954-28.347,73.191-40.932c25.2-13.181,51.279-26.816,78.973-37.247l91.899-34.724l-71.376,67.606
				c-2.126,2.013-4.224,4.053-6.293,6.094c48.259-10.437,97.913-12.812,146.948-7.03c-32.326-31.188-61.25-65.718-86.287-103.011
				c-8.766-1.283-15.901-7.713-18.085-16.299l6.491-1.644c-2.154-3.458-4.309-6.945-6.378-10.46l-89.745,30.869
				c-36.072,12.551-71.484,26.922-106.101,43.058c-18.595,8.504-37.814,17.008-59.528,25.767l-10.545,4.337
				c2.183-0.482,4.365-0.907,6.548-1.332L796.998,1770.847z M577.767,1639.49l-67.748,79.569
				c-36.34,42.69-81.95,100.545-112.337,169.71c-12.925,30.089-22.691,61.438-29.14,93.543
				c18.595-26.135,45.354-62.362,59.528-75.657c38.721-36.312,44.362-40.139,76.989-59.159l15.732-9.213l2.409-1.446l2.835-1.644
				l64.687-68.287c36.68-38.721,80.702-76.536,135.865-116.447c-11.628,2.125-23.021,5.381-34.016,9.723
				c-17.008,6.633-33.817,17.008-51.676,28.035c-18.709,11.509-38.041,23.386-58.535,31.408l-47.083,18.397l21.883-45.61
				c23.839-49.295,51.959-74.863,87.534-107.235c4.479-4.044,9.118-8.277,13.918-12.699c22.819-21.005,53.858-32.088,86.939-43.795
				c33.08-11.707,67.266-23.924,90.113-46.318c10.545-10.375,19.304-26.306,26.731-48.728c6.208-18.68,1.247-40.309-16.129-70.129
				c-1.899-3.26-4.649-8.646-8.164-15.449c-6.35-12.387-23.216-45.354-29.735-51.194c1.404,1.122,3.041,1.916,4.791,2.324
				l9.808-38.466c17.83,4.337,32.542,13.465,46.8,22.28c13.663,8.504,26.589,16.469,39.685,18.113
				c10.97,1.361,23.641-1.587,35.887-4.45l66.529-15.562c16.554-3.855,30.813-7.795,38.154-16.724
				c0.85-1.021,1.616-2.098,2.409-3.175c2.91-4.297,6.369-8.194,10.29-11.594c13.238-10.942,29.509-10.998,42.52-9.496
				l65.452-39.146c14.173-8.504,30.331-11.537,44.561-14.173l2.098-0.397c6.605-1.276,13.238-2.324,19.843-3.26
				c-3.424-3.715-5.158-8.681-4.791-13.72c0.232-5.585,0.137-11.179-0.284-16.753c-11.877-3.657-33.307-8.731-41.528-10.658
				c-6.435-1.531-9.609-2.268-11.339-2.835c-35.745-10.261-71.575-21.515-109.559-34.384c-21.033-7.115-31.011-22.309-39.061-34.498
				c-4.649-7.087-8.674-13.209-14.173-17.008c-18.794-12.756-44.022-19.361-74.977-19.616c-20.491,0.249-40.948,1.744-61.257,4.479
				c-14.74,1.672-29.99,3.43-45.354,4.252c-78.832,4.309-155.537-14.967-233.717-36.85c-10.857-3.033-21.685-6.151-32.513-9.269
				c-29.537-8.504-60.066-17.32-90.284-24.01c-17.943-3.968-36.397-6.973-54.879-9.496l-0.425,5.669
				c-2.183,28.035-3.43,53.603,3.146,82.403c0.992,5.669,2.836,11.155,5.471,16.271c3.657,6.038,11.339,10.885,20.976,13.323
				c15.165,3.798,32.485,3.6,50.797,3.402c11.565-0.142,23.528-0.283,35.263,0.68c12.869,1.02,26.107,2.353,40.507,4.082
				c-16.643-14.176-35.612-25.368-56.069-33.08l11.055-37.984c45.078,9.437,88.031,27.099,126.709,52.101
				c10.573,6.832,21.203,14.91,27.354,27.638c16.441,34.016-8.957,74.495-25.795,101.282c-2.211,3.572-4.28,6.86-6.038,9.808
				c-27.468,46.261-54.709,93.543-80.901,140.542c-30.699,54.964-55.106,101.395-76.819,146.069l-11.027,22.45
				c-7.172,14.542-14.173,28.772-20.835,42.973l2.438-2.835l9.666-15.505l-2.835,8.107c7.937-8.523,16.12-16.838,24.548-24.945l0,0
				l27.411,28.687l0,0c-3.355,4.087-6.21,8.559-8.504,13.323c-1.644,3.033-3.345,6.179-5.187,9.127
				c-5.924,9.553-11.82,19.361-17.518,29.112c-11.14,19.021-21.94,38.579-32.06,58.139c-2.041,3.912-3.968,7.909-5.924,11.877
				c-2.835,5.868-5.669,11.934-9.099,17.915c-2.268,4.139-4.706,7.767-6.86,10.998c-2.361,3.245-4.438,6.688-6.208,10.29
				c-2.211,4.819-4.375,9.666-6.491,14.542c16.548-15.99,35.18-29.672,55.389-40.677L577.767,1639.49z M808.62,1641.927
				c-34.781,22.961-65.622,44.901-93.175,66.302c49.663-16.441,101.14-26.901,146.126-28.743l90.51-3.742
				c-3.005-5.244-5.896-10.573-8.731-15.902l3.033-1.616c-24.973-53.547-47.962-115.257-40.932-178.923
				c4.337-38.976,19.162-74.296,33.477-108.425c5.017-11.906,10.687-25.512,21.09-36.85l-5.669,1.332
				c-14.91,3.487-31.776,7.427-49.833,5.159c-10.65-1.476-20.99-4.674-30.614-9.468c2.835,5.386,5.301,10.318,6.548,12.501
				c14.683,25.143,32.655,63.156,19.531,102.614c-9.609,28.942-21.26,49.464-36.624,64.545
				c-29.083,28.545-69.194,42.803-104.598,55.389c-29.055,10.318-56.495,20.098-73.361,35.603
				c-4.847,4.479-9.553,8.731-14.173,12.869c-9.893,8.986-18.822,17.008-27.043,25.143c10.795-6.327,22.041-11.851,33.647-16.526
				c42.066-16.469,73.701-15.505,94.819-14.882c5.155,0.392,10.336,0.316,15.477-0.227c-0.505,0.164-0.983,0.403-1.417,0.709
				l21.883,33.137H808.62z M1093.757,1279.092c-1.959-0.175-3.928,0.219-5.669,1.134c-1.262,1.337-2.41,2.779-3.43,4.309
				c-0.709,0.992-1.474,2.041-2.324,3.146c16.214-2.069,32.513-3.373,48.728-4.422c-7.427-0.624-14.891-1.493-22.394-2.608
				c-4.928-0.866-9.91-1.397-14.91-1.587V1279.092z M1148.806,1244.566c17.923,0.634,35.864-0.553,53.547-3.543
				c3.09-0.539,6.151-1.077,9.128-1.701l-4.479-0.624l-1.191-0.17c-8.107-1.191-15.08-2.183-21.005-1.021L1148.806,1244.566z
				 M622.497,1134.639c0.539,0.85,1.021,1.729,1.502,2.665c8.504,16.469,0.17,34.016-7.058,49.663
				c-8.05,17.263-16.242,34.583-24.406,51.789c9.846-17.008,19.758-33.893,29.735-50.655c1.899-3.203,4.139-6.775,6.576-10.63
				c6.265-9.978,15.704-25.03,21.033-38.608l-23.017-3.543L622.497,1134.639z M1272.085,1156.352l0.567,0.198
				c1.644,0.567,2.835,0.964,3.288,1.134c7.313,2.665,16.866,7.654,20.551,20.721c0.935-1.956,1.871-3.883,2.835-5.811l9.014-18.765
				c-12.453-3.553-24.879-7.219-37.276-10.998C1271.49,1147.31,1271.915,1151.845,1272.085,1156.352L1272.085,1156.352z
				 M1040.183,1021.593c2.193,1.599,4.295,3.322,6.293,5.159c-0.425-1.304-0.765-2.495-1.049-3.543l0,0L1040.183,1021.593z
				 M354.226,954.837c0.876,6.097,2.299,12.102,4.252,17.943c5.593-5.757,11.747-10.941,18.369-15.477l-7.228-0.794L354.226,954.837
				z"/>
			<path id="path147" inkscape:connector-curvature="0" fill="#B89551" d="M973.654,1141.017
				c-10.607-0.246-20.778-4.267-28.687-11.339c-5.56-5.13-10.43-10.962-14.485-17.348c-1.162-1.701-2.324-3.373-3.543-5.017
				c-8.185-10.866-19.281-19.191-32.003-24.01l-111.288-42.038l118.885,3.572c3.52,0.122,7.026,0.511,10.488,1.162l3.487-17.603
				c7.115,0.992,13.691,1.984,20.268,3.005c6.576,1.021,12.926,1.956,19.843,2.835l1.389,0.198l1.361,0.397
				c5.074,1.474,8.957,2.551,12.047,3.402c14.173,3.969,15.959,4.734,29.594,13.351l5.301,3.373
				c7.087,4.45,13.947,9.184,20.551,13.776c13.861,9.638,26.958,18.737,41.102,24.406l-12.756,37.531l-46.063-12.898
				c-0.624,0.822-1.276,1.729-1.786,2.466c-4.457,7.077-10.616,12.924-17.915,17.008
				C984.545,1139.717,979.138,1141.008,973.654,1141.017L973.654,1141.017z"/>
			<path id="path149" inkscape:connector-curvature="0" fill="#B89551" d="M796.091,1036.56c-9.377-0.157-18.73-1.02-27.978-2.58
				c-22.989-3.515-54.482-8.306-76.365-30.699c-12.132-12.416-18.709-27.751-24.52-41.273l-2.041-4.762
				c-43.512-99.893-128.183-158.343-217.814-220.224c-20.154-13.918-41.017-28.346-61.2-43.115
				c-97.172-71.235-218.098-159.903-275.159-290.07c-30.558-69.676-28.545-153.638,5.329-224.646
				C168.16,70.626,284.862,0.468,413.612,0.468c7.937,0,15.959,0.283,23.839,0.822L555.94,9.425L441.25,40.153
				c-15.874,4.252-31.181,12.161-48.983,22.677l-13.493,7.88c-44.306,25.824-90.142,52.554-121.635,91.049
				c-44.731,54.794-43.994,121.493-35.518,167.811c1.647,10.109,4.601,19.962,8.787,29.31c7.647-18.536,17.054-36.296,28.091-53.036
				c3.685-5.357,7.172-10.573,10.573-15.732c10.311-16.434,21.994-31.967,34.923-46.432c9.383-10.148,16.668-19.077,23.556-27.78
				c18.822-23.187,35.065-43.228,78.208-67.38l86.91-48.558l-61.484,78.18c-9.91,12.36-18.964,25.383-27.099,38.976l40.621,43.313
				c47.509,50.712,63.411,81.808,77.216,151.172c6.661,33.307,7.54,68.173,8.504,101.877c1.672,65.991,3.26,128.296,46.176,174.047
				c25.285,26.957,52.101,52.753,80.05,77.131c-9.298-43.002-19.247-86.57-30.756-129.77
				c-19.843-74.324-51.846-157.351-97.852-253.843l-49.238-102.784l80.958,80.249c72.631,72.197,127.085,160.605,158.882,257.953
				c9.014,27.78,17.773,55.984,26.221,83.254c14.513,46.743,29.48,95.074,46.233,142.129c4.677,13.153,8.787,23.811,15.534,31.181
				c5.669,6.265,11.055,9.468,16.072,9.468c3.83-0.199,7.542-1.391,10.772-3.458c7.625-4.365,14.995-9.581,22.677-15.109
				c12.022-9.09,24.905-16.98,38.466-23.556c4.311-1.938,8.72-3.651,13.209-5.131c26.306-8.731,55.559-8.759,83.877-8.759
				c55.616,0,90.709-2.665,110.551-38.75c19.389-35.348,2.495-85.862-51.704-154.488c-38.098-48.189-82.545-86.712-107.717-102.047
				L834.472,465.35l123.477,29.735c67.173,16.535,128.316,51.69,176.4,101.424c6.746,6.917,32.258,42.803,53.858,77.017
				c6.945,11.027,12.813,20.778,17.745,29.452c1.013-29.717-4.081-59.326-14.967-86.995l-46.998-119.055l80.816,99.213
				c33.024,40.479,57.543,94.564,65.594,144.567c10.318,64.262-5.669,117.383-46.403,153.638
				c-18.567,16.526-42.888,27.751-76.536,35.32c-35.121,7.88-70.866,10.403-105.194,12.813c-24.293,1.729-49.408,3.487-73.474,7.172
				c-35.717,5.414-102.047,15.534-126.992,47.509c-1.446,1.871-2.835,3.968-4.45,6.18c-4.52,7.127-10.049,13.562-16.413,19.105
				C829.285,1031.94,814.602,1036.56,796.091,1036.56L796.091,1036.56z M402.075,220.55c-12.331,21.742-19.843,42.52-30.302,73.417
				c-1.625,4.724-3.269,9.449-4.932,14.173c-17.802,51.279-36.198,104.343-21.43,154.488c6.321,21.515,19.162,41.499,29.65,56.495
				c20.58,29.48,29.367,29.792,29.735,29.792s2.835-1.672,5.839-6.463c15.846-25.03,17.83-57.628,17.632-89.15
				c-0.397-63.269-5.272-95.074-14.173-152.788c-1.162-7.427-2.353-15.279-3.6-23.669L402.075,220.55z"/>
		</g>
		<g id="Layer_7">
			<path id="path152" inkscape:connector-curvature="0" fill="#6E2B31" d="M363.609,1041.606
				c3.19-22.872,13.05-44.297,28.346-61.597c-2.025,15.702-2.736,31.546-2.126,47.367c0.503,15.483,4.889,30.592,12.756,43.937
				c9.921,15.846,25.143,26.476,42.52,33.392c17.845,6.633,36.645,10.337,55.672,10.97c18.652,0.907,37.644,0.284,56.381,0.992
				c18.737,0.709,37.191,2.835,54.822,8.872c1.935,0.67,3.828,1.455,5.669,2.353c1.849,0.903,3.557,2.068,5.074,3.458
				c5.159,4.819,6.463,11.339,5.669,18.51c-1.03,7.259-3.202,14.31-6.435,20.891c-21.742,47.055-49.465,97.058-76.762,147.203
				c-27.298,50.145-54.227,100.516-74.438,148.252c-70.611,109.276-63.95,218.551-98.617,321.052
				c-21.43,105.279-34.186,211.436-46.63,326.466c19.106-32.825,38.438-65.906,60.066-97.172
				c21.628-31.266,45.354-60.661,73.701-86.117c50.117-45.354,110.041-74.92,173.254-99.213s129.685-43.172,192.756-66.841
				c18.454-6.917,37.758-15.392,53.858-26.901s28.885-25.965,34.356-44.873c2.591-9.599,3.596-19.557,2.976-29.48
				c-0.397-10.006-1.757-20.069-2.835-29.991c-8.007-68.838-4.587-138.526,10.12-206.249c3.279-16.278,8.023-32.226,14.173-47.651
				c6.042-15.259,14.963-29.214,26.277-41.102c32.457-32.939,78.746-38.183,126.595-41.499
				c47.849-3.317,97.313-4.677,136.063-29.849c27.95-26.22,27.95-26.22,31.691-43.654c10.318-12.359,23.017-14.542,31.918-27.921
				c1.9-2.744,3.66-5.582,5.272-8.504c1.604-2.939,2.723-6.116,3.317-9.411c1.757-10.715-3.487-19.644-11.707-26.873
				c-8.839-7.178-18.851-12.778-29.594-16.554l-55.644-21.033l-55.616-21.033c-16.257-5.82-32.167-12.568-47.651-20.211
				c-15.345-7.514-29.271-17.632-41.159-29.906c-4.195-4.479-8.079-9.354-12.217-13.89c-3.998-4.619-8.648-8.63-13.805-11.906
				c-5.154-2.968-10.754-5.084-16.583-6.265c-5.881-1.213-11.824-2.102-17.802-2.665c-46.12-5.131-92.806-7.37-139.521-9.581
				c-46.715-2.211-93.543-4.422-139.521-9.553c-5.669-0.624-11.764-1.559-18-2.523c-6.236-0.964-12.444-1.871-17.972-2.494
				c-45.099-5.017-88.895-12.643-132.718-20.268c-43.824-7.625-87.591-15.25-132.69-20.296
				c-12.132-1.361-33.194-10.233-52.696-14.882c-19.502-4.649-37.417-5.017-43.285,10.63c-2.58,6.888-0.765,19.105,2.438,31.181
				c2.724,10.181,6.289,20.117,10.658,29.707c1.871,3.855,9.439,13.266,16.469,22.337
				C357.486,1030.296,363.977,1038.941,363.609,1041.606z"/>
		</g>
		<g id="Layer_4">
			<path id="path155" inkscape:connector-curvature="0" fill="#FBFAF8" d="M623.433,1422.242
				c-66.359,92.495-129.458,185.216-166.479,278.561c43.228-61.71,132.945-98.589,203.471-125.121
				c-81.156,86.287-211.89,208.97-245.821,322.47c-3.969,13.323,60.236-42.52,112.252-70.639
				c83.707-45.071,122.627-38.183,238.507-70.072c73.049-20.126-356.627,115.257-430.866,335.169
				c14.627-23.754,11.707-79.88,16.158-107.972c5.669-35.915,11.792-71.802,18.85-107.49
				c12.302-62.362,34.356-123.846,39.232-187.285C417.326,1577.751,528.614,1485.2,623.433,1422.242L623.433,1422.242z"/>
			<path id="path157" inkscape:connector-curvature="0" fill="#FBFAF8" d="M929.745,1109.326
				c5.811,9.354,11.877,18.992,20.863,25.342c8.986,6.35,21.827,8.646,31.011,2.523c4.819-3.203,8.05-8.306,12.501-11.991
				c9.411-7.795,22.677-15.024,34.016-11.339c11.339,3.685,40.45,1.332,50.145,8.731c-32.882-22.677-54.907-23.358-80.391-31.55
				c-21.175-6.832-69.08-23.641-88.753-17.008C915.328,1086.181,922.209,1097.964,929.745,1109.326L929.745,1109.326z"/>
			<path id="path159" inkscape:connector-curvature="0" fill="#FBFAF8" d="M1218.936,1157.656
				c2.324,5.669-18.85,14.513-23.868,18.085c-9.694,6.888-15.364,7.71-24.265,23.783c-1.587,2.835,2.154,23.188,5.272,22.28
				c4.654-1.501,9.385-2.75,14.173-3.742c11.934-2.211,22.082-2.041,34.016-4.252c-4.224,13.918-36.227,53.632-28.091,66.331
				c15.676,24.52,52.923-20.891,56.353-33.392c2.693-9.751,17.915-29.055,26.334-34.639c3.742-2.466-14.513,0.85-10.346-0.85
				c13.764-5.91,23.028-19.065,23.953-34.016c1.219-28.12-25.654-40.62-47.622-49.38c-10.46-4.195-116.221-26.816-118.517-28.942
				C1137.921,1109.382,1208.646,1132.343,1218.936,1157.656L1218.936,1157.656z"/>
		</g>
		<g id="Layer_12">
			<path id="path162" inkscape:connector-curvature="0" fill="#1D1D1B" stroke="#1D1D1B" stroke-miterlimit="10" d="
				M972.945,1694.964c0.624,2.438,4.762,1.814,5.669-0.51c0.579-2.486,0.107-5.101-1.304-7.228
				c-31.918-64.602-64.998-133.625-57.09-205.229c3.968-35.858,18.085-69.676,32.06-102.926c4.762-11.339,9.666-22.847,18-31.805
				c8.034-7.956,17.601-14.196,28.12-18.34c56.353-24.973,120.161-24.094,181.616-28.715c6.44-0.162,12.812-1.348,18.879-3.515
				c4.749-2.211,9.166-5.073,13.124-8.504c20.098-16.073,36.85-32.031,46.772-56.041c1.247-2.835,2.211-6.86-0.198-9.042
				c4.592,4.167-18.17,24.406-21.146,26.249c-11.083,6.831-24.038,9.468-36.709,11.622c-31.163,5.182-62.955,5.335-94.167,0.453
				c-12.387-1.871-26.532-4.053-36.17,3.912c-4.054,3.345-6.661,8.05-10.006,12.104c-11.707,14.173-30.983,19.219-48.954,23.414
				l-66.558,15.591c-14.173,3.288-28.517,6.605-42.86,4.791c-32.542-4.082-56.92-33.052-88.781-40.791
				c10.885,2.835,38.069,61.398,45.128,73.502c15.024,25.795,27.78,56.41,17.83,86.372c-6.775,20.409-16.328,41.556-31.691,56.693
				c-48.898,47.991-135.213,51.647-177.477,90.567c-42.265,38.92-72.028,62.362-97.03,113.981
				c37.587-14.712,72.907-44.844,110.183-59.528c61.427-24.038,98.901-7.257,112.592-16.299
				c-68.032,45.014-136.545,95.868-192.756,155.14c70.016-43.597,173.48-77.726,257.386-81.156
				c-73.134,25.087-110.268,46.658-166.592,69.166c-56.324,22.507-112.337,55.672-164.977,86.797
				c-46.063,27.213-44.872,24.18-89.235,65.764c-18.085,17.008-63.383,81.383-77.159,101.707
				c-13.011,19.134-28.176,45.921-29.31,69.506c3.458-71.632,15.562-145.786,44.391-211.437
				c28.488-64.885,69.619-120.869,115.37-174.614c-51.647,27.553-87.874,76.536-122.315,123.789
				c5.953-20.239,12.567-40.262,19.843-60.066c7.937-21.43,16.649-42.539,26.135-63.326c3.855-8.504,9.383-14.655,13.748-22.677
				c5.272-9.581,9.751-19.644,14.797-29.367c10.337-19.918,21.184-39.591,32.542-59.017c5.802-9.921,11.735-19.776,17.802-29.565
				c4.989-8.05,9.95-19.843,16.781-26.334c-40.45,38.636-74.126,83.65-107.717,128.466c3.288-12.869,6.935-25.625,10.942-38.268
				c16.072-50.655,40.167-96.151,63.241-143.603c24.236-49.805,50.343-98.674,77.358-147.062
				c26.457-47.357,53.509-94.356,81.156-140.995c13.465-22.677,44.561-64.403,31.181-92.325
				c-4.167-8.504-12.274-14.428-20.296-19.587c-36.657-23.641-77.335-40.368-120.019-49.351
				c40.595,15.311,75.459,42.808,99.808,78.718c-30.813-4.734-61.739-8.958-92.835-11.339c-28.97-2.324-61.115,2.466-89.291-4.62
				c-13.209-3.317-25.994-10.573-33.109-22.195c-3.781-6.934-6.431-14.426-7.852-22.195c-7.03-30.784-5.981-57.515-3.6-88.356
				c-11.339-0.539-54.482,35.547-43.228,49.635c-17.085-21.565-26.455-48.23-26.617-75.742c0-2.835,0.482-6.236,3.061-7.313
				c1.225-0.402,2.534-0.48,3.798-0.227c47.537,5.669,95.584,9.383,142.384,19.843c41.783,9.269,82.658,22.054,123.846,33.562
				c73.928,20.693,149.839,40.365,227.282,36.142c36.028-1.984,71.773-9.099,107.858-8.787c29.707,0.255,60.945,6.123,85.918,23.074
				c20.268,13.748,22.904,40.365,48.416,49.011c36.085,12.217,72.028,23.584,108.652,34.016
				c7.002,2.013,65.197,14.513,66.047,19.417c1.502,10.16,2.042,20.438,1.616,30.699c0,0.624,15.335,5.669,17.008,6.123
				c5.981,2.211,8.277,4.394,8.929,11.169c0.431,2.737-0.197,5.534-1.757,7.824c-2.438,3.175-6.86,3.827-10.828,4.28
				c-14.825,1.672-29.622,3.458-44.306,6.265c-13.436,2.551-28.346,5.131-40.195,12.189c9.638-1.899,19.276-0.369,28.857,0.992
				c15.973,2.299,32.06,3.718,48.189,4.252c4.875,0.17,38.268,1.134,39.912-2.154c13.068-26.362,25.512-53.546,38.693-79.937
				c-51.269-14.116-102-30.066-152.192-47.849c-25.077-8.863-49.984-18.198-74.721-28.006c-9.468-3.742-20.693-5.953-28.091-13.465
				c-7.398-7.512-14.173-23.953-17.008-33.817c-0.519-3.105-1.698-6.063-3.458-8.674c-2.34-2.332-5.286-3.962-8.504-4.706
				c-58.932-18.85-121.55-19.843-182.835-18.397c-61.852,1.446-125.235,0.284-186.265-11.169
				c-53.858-11.537-107.717-21.685-162.028-31.181c-33.874-5.981-68.485-11.65-101.707-20.069
				c-15.449-3.912-32.882-3.146-48.813-4.139l-54.482-3.43c-8.249-0.51-16.724-1.02-24.661,1.389
				c19.559,53.858,53.858,101.622,82.488,150.86c-6.661-16.356,1.899-47.962,8.504-64.375c3.061,35.093-0.368,86.995,27.411,108.68
				s67.493,17.008,103.039,16.526c24.466-0.45,48.912,1.668,72.935,6.321c28.743,5.669,24.066,18.879,12.813,42.973
				c-90.34,194.06-191.707,380.126-238.11,590.57l36.85-59.272c-25.497,71.246-46.533,144.01-62.986,217.87
				c-15.789,70.866-15.817,148.847-16.016,221.698c0.625-15.219,4.924-30.06,12.529-43.257
				c10.091-17.008,26.787-40.337,38.721-56.069c23.017-30.444,31.181-41.896,57.402-69.449
				c71.178-74.58,171.95-151.2,275.499-171.383c-31.521,20.92-57.402,49.209-78.123,80.674
				c-21.345,32.372-37.474,68.031-50.57,104.4c-3.78,10.677-7.455,21.439-11.027,32.287c-3.43,10.687-5.839,22.082-10.035,32.485
				c-4.195,10.403-5.414,21.798-7.739,32.485l-7.682,35.376c8.481-26.798,21.221-52.057,37.729-74.806
				c13.905-17.873,29.001-34.787,45.184-50.627c11.112-11.339,22.45-22.167,33.647-33.307
				c32.457-32.287,67.323-62.249,105.931-86.825c23.131-14.683,47.452-27.411,71.717-40.082
				c25.115-13.124,50.287-26.277,76.791-36.255c-19.065,18.064-36.552,37.723-52.271,58.762
				c88.554-33.76,191.764-39.146,281.736-7.795c-73.802-54.341-134.422-124.601-177.364-205.569"/>
			<path id="path164" inkscape:connector-curvature="0" fill="#1D1D1B" stroke="#1D1D1B" stroke-miterlimit="10" d="
				M949.701,1054.957c28.006,8.135,20.409,4.337,41.896,17.858c21.487,13.521,41.244,30.359,64.828,39.827l-46.573-13.039
				c-2.853-1.01-5.879-1.444-8.901-1.276c-11.197,1.417-14.428,17.178-24.52,22.224c-7.342,3.685-16.469,0.595-22.677-4.791
				c-6.208-5.386-10.233-12.671-15.109-19.247c-10.43-13.967-24.63-24.667-40.932-30.841c20.976,0.624,41.159,16.639,61.2,10.403
				c0.964-5.159-4.479-9.014-9.213-11.339c-14.032-6.605-25.172-11.962-40.195-15.817
				C923.594,1051.017,935.613,1052.973,949.701,1054.957L949.701,1054.957z"/>
			<path id="path166" inkscape:connector-curvature="0" fill="#1D1D1B" stroke="#1D1D1B" stroke-miterlimit="10" d="
				M1062.123,621.993c34.866,44.164,85.351,118.233,53.518,176.343c-41.358,75.43-139.323,34.753-205.654,56.693
				c-3.853,1.266-7.638,2.733-11.339,4.394c-21.458,9.666-39.118,26.079-59.528,37.786c-19.077,10.97-36.454,6.747-51.477-9.95
				c-9.553-10.658-14.683-24.463-19.474-37.956c-26.646-74.948-48.189-150.548-72.624-225.893
				c-30.803-94.363-83.588-180.056-154.006-250.016c38.92,81.609,75.77,169.795,99.213,257.244
				c16.441,61.654,29.707,124.101,42.888,186.52c-44.802-35.146-86.867-73.647-125.83-115.172
				c-71.632-76.365-40.337-189.383-59.528-285.619c-13.068-65.424-39.232-129.742-84.841-178.413
				c19.698,70.432,29.898,143.179,30.331,216.312c0.227,34.498-2.268,70.866-20.721,99.893
				c-23.159,36.595-52.214,0.85-68.598-22.677c-13.465-19.247-25.795-39.685-32.428-62.362
				c-18.057-61.285,7.058-123.506,26.617-180.794c17.405-51.024,42.888-100.29,85.918-134.221
				c-39.77,33.449-80.561,64.913-116.022,103.096c-17.425,19.124-33.445,39.482-47.934,60.917
				c-15.732,22.677-25.512,49.096-37.077,74.353c-0.289,0.821-0.824,1.533-1.531,2.041c-1.276,0.68-2.835-0.17-3.997-1.049
				c-18.198-13.606-25.994-36.85-30.104-59.329c-11.991-65.48-2.835-131.783,39.685-183.855
				c37.077-45.354,90.709-74.268,140.428-103.465c17.008-10.063,34.724-19.616,53.858-24.746
				c-123.364-8.504-247.805,53.433-301.833,166.649c-30.813,64.602-33.789,142.583-5.046,208.12
				c53.547,122.23,164.183,205.399,268.725,282.047c108.085,79.37,229.295,142.526,285.477,271.418
				c6.151,14.173,11.764,29.055,22.677,40.11c16.554,17.008,41.726,21.345,65.197,24.917c19.587,2.976,41.811,5.301,57.175-7.257
				c7.342-5.981,11.934-14.598,17.745-22.082c28.828-37.134,95.698-48.189,139.663-54.964
				c58.847-8.957,119.055-6.633,177.307-19.701c24.463-5.499,49.011-14.173,67.748-30.784
				c78.52-69.987,25.512-198.624-21.373-270.936c18.676,47.619,21.548,99.981,8.192,149.358c-1.587,5.811-4.11,12.331-9.836,14.173
				c23.272-7.654-77.188-151.229-87.562-161.858c-45.553-46.963-103.354-80.224-166.847-96.01
				C977.707,532.701,1024.139,573.889,1062.123,621.993L1062.123,621.993z"/>
		</g>
	</g>
</g>
</svg>
